<?xml version="1.0" encoding="utf-8"?>
<svg viewBox="0 0 100 100" xmlns="http://www.w3.org/2000/svg">
  <defs/>
  <rect width="100" height="100" rx="20" fill="white"/>
  <rect x="17.258" y="17.23" width="12" height="12" stroke-width="0.5" stroke="black" style="fill: rgb(128, 128, 128);"/>
  <rect x="31.258" y="17.23" width="12" height="12" stroke="black" stroke-width="0.5" style="fill: rgb(128, 128, 128);"/>
  <rect x="45.258" y="17.23" width="12" height="12" stroke="black" stroke-width="0.5" style="fill: rgb(128, 128, 128);"/>
  <rect x="59.258" y="17.23" width="12" height="12" fill="#FFB347" stroke="black" stroke-width="0.5"/>
  <rect x="73.258" y="17.23" width="12" height="12" stroke="black" stroke-width="0.5" style="fill: rgb(128, 128, 128);"/>
  <rect x="17.258" y="31.23" width="12" height="12" stroke="black" stroke-width="0.5" style="fill: rgb(111, 207, 151);"/>
  <rect x="31.258" y="31.23" width="12" height="12" stroke="black" stroke-width="0.5" style="fill: rgb(128, 128, 128);"/>
  <rect x="45.258" y="31.23" width="12" height="12" stroke="black" stroke-width="0.5" style="fill: rgb(255, 179, 71);"/>
  <rect x="59.258" y="31.23" width="12" height="12" stroke="black" stroke-width="0.5" style="fill: rgb(128, 128, 128);"/>
  <rect x="73.258" y="31.23" width="12" height="12" fill="#808080" stroke="black" stroke-width="0.5"/>
  <rect x="17.258" y="45.23" width="12" height="12" stroke="black" stroke-width="0.5" style="fill: rgb(111, 207, 151);"/>
  <rect x="31.258" y="45.23" width="12" height="12" stroke="black" stroke-width="0.5" style="fill: rgb(128, 128, 128);"/>
  <rect x="45.258" y="45.23" width="12" height="12" fill="white" stroke="black" stroke-width="0.5"/>
  <rect x="59.258" y="45.23" width="12" height="12" stroke="black" stroke-width="0.5" style="fill: rgb(111, 207, 151);"/>
  <rect x="73.258" y="45.23" width="12" height="12" stroke="black" stroke-width="0.5" style="fill: rgb(255, 179, 71);"/>
  <rect x="17.258" y="59.23" width="12" height="12" stroke="black" stroke-width="0.5" style="fill: rgb(111, 207, 151);"/>
  <rect x="31.258" y="59.23" width="12" height="12" stroke="black" stroke-width="0.5" style="fill: rgb(255, 179, 71);"/>
  <rect x="45.258" y="59.23" width="12" height="12" stroke="black" stroke-width="0.5" style="fill: rgb(111, 207, 151);"/>
  <rect x="59.258" y="59.23" width="12" height="12" stroke="black" stroke-width="0.5" style="fill: rgb(111, 207, 151);"/>
  <rect x="73.258" y="59.23" width="12" height="12" stroke="black" stroke-width="0.5" style="fill: rgb(255, 179, 71);"/>
  <rect x="17.258" y="73.23" width="12" height="12" stroke="black" stroke-width="0.5" style="fill: rgb(111, 207, 151);"/>
  <rect x="31.258" y="73.23" width="12" height="12" stroke="black" stroke-width="0.5" style="fill: rgb(111, 207, 151);"/>
  <rect x="45.258" y="73.23" width="12" height="12" stroke="black" stroke-width="0.5" style="fill: rgb(111, 207, 151);"/>
  <rect x="59.258" y="73.23" width="12" height="12" stroke="black" stroke-width="0.5" style="fill: rgb(111, 207, 151);"/>
  <rect x="73.258" y="73.23" width="12" height="12" stroke="black" stroke-width="0.5" style="fill: rgb(111, 207, 151);"/>
  <circle cx="51.22" cy="52.021" r="14" fill="#FF4136" style="stroke: rgb(0, 0, 0); stroke-width: 0.5px;"/>
  <path d="M 50.958 53.153 L 50.958 41.153 M 50.958 53.153 L 57.958 60.153" stroke="white" stroke-linecap="round" style="stroke-width: 4px;"/>
</svg>